<svg width="144" height="149" viewBox="0 0 144 149" fill="none" xmlns="http://www.w3.org/2000/svg">
<rect width="144" height="149" fill="#F8F1F1"/>
<rect width="414" height="896" transform="translate(-134 -729)" fill="white"/>
<path d="M24.772 47.2337C20.0689 57.4397 18.7986 68.8945 21.1512 79.8829C23.5037 90.8713 29.3527 100.802 37.822 108.188C46.2914 115.573 56.9254 120.017 68.1317 120.853C79.3381 121.688 90.5135 118.871 99.9847 112.823C109.456 106.776 116.713 97.8223 120.669 87.3044C124.626 76.7865 125.069 65.2699 121.931 54.4793C118.794 43.6887 112.246 34.2047 103.267 27.4476C94.2878 20.6905 83.3616 17.0238 72.1242 16.9967L72.1069 24.189C81.79 24.2123 91.205 27.3718 98.942 33.1943C106.679 39.0169 112.322 47.1891 115.025 56.4872C117.728 65.7854 117.347 75.709 113.938 84.7722C110.529 93.8354 104.275 101.55 96.1139 106.762C87.9527 111.973 78.323 114.4 68.6666 113.68C59.0103 112.96 49.8471 109.131 42.5491 102.767C35.2512 96.4029 30.2112 87.8458 28.184 78.3772C26.1569 68.9086 27.2515 59.0381 31.3041 50.2438L24.772 47.2337Z" fill="#F3B3AB"/>
<g filter="url(#filter0_d_3_0)">
<circle cx="72" cy="69" r="40" fill="#A7B5F9"/>
</g>
<path d="M61 69H83M83 69L73.8235 61M83 69L73.8235 77" stroke="#49548B" stroke-width="3" stroke-linecap="round" stroke-linejoin="round"/>
<defs>
<filter id="filter0_d_3_0" x="0" y="5" width="144" height="144" filterUnits="userSpaceOnUse" color-interpolation-filters="sRGB">
<feFlood flood-opacity="0" result="BackgroundImageFix"/>
<feColorMatrix in="SourceAlpha" type="matrix" values="0 0 0 0 0 0 0 0 0 0 0 0 0 0 0 0 0 0 127 0" result="hardAlpha"/>
<feOffset dy="8"/>
<feGaussianBlur stdDeviation="16"/>
<feColorMatrix type="matrix" values="0 0 0 0 0.996078 0 0 0 0 0.403922 0 0 0 0 0.403922 0 0 0 0.2 0"/>
<feBlend mode="normal" in2="BackgroundImageFix" result="effect1_dropShadow_3_0"/>
<feBlend mode="normal" in="SourceGraphic" in2="effect1_dropShadow_3_0" result="shape"/>
</filter>
</defs>
</svg>
