<svg width="29" height="29" viewBox="0 0 29 29" fill="none" xmlns="http://www.w3.org/2000/svg">
<rect width="29" height="29" fill="#F8F1F1"/>
<g clip-path="url(#clip0_3_0)">
<rect width="433" height="937.589" transform="translate(-227 -602)" fill="white"/>
<rect x="-227" y="-602" width="375" height="812" fill="#FFFDFD"/>
<g filter="url(#filter0_d_3_0)">
<rect x="-199.287" y="-207.105" width="377.576" height="340.627" rx="18.4747" fill="white"/>
<rect x="-198.71" y="-206.528" width="376.421" height="339.472" rx="17.8973" stroke="#A7B5F9" stroke-opacity="0.5" stroke-width="1.15467"/>
</g>
<circle cx="14.3247" cy="14.5826" r="13.856" fill="white"/>
<circle cx="14.3247" cy="14.5826" r="12.7013" stroke="#A6D423" stroke-opacity="0.3" stroke-width="2.30933"/>
<path fill-rule="evenodd" clip-rule="evenodd" d="M12.3504 17.428L9.8014 14.8791C9.66416 14.7415 9.47783 14.6642 9.28352 14.6642C9.08922 14.6642 8.90289 14.7415 8.76565 14.8791C8.47916 15.1655 8.47916 15.6283 8.76565 15.9148L11.8362 18.9854C12.1227 19.2718 12.5855 19.2718 12.8719 18.9854L20.6438 11.2135C20.9303 10.927 20.9303 10.4642 20.6438 10.1777C20.5066 10.0402 20.3202 9.96289 20.1259 9.96289C19.9316 9.96289 19.7453 10.0402 19.608 10.1777L12.3504 17.428Z" fill="#A6D523"/>
</g>
<defs>
<filter id="filter0_d_3_0" x="-208.524" y="-214.033" width="396.051" height="359.102" filterUnits="userSpaceOnUse" color-interpolation-filters="sRGB">
<feFlood flood-opacity="0" result="BackgroundImageFix"/>
<feColorMatrix in="SourceAlpha" type="matrix" values="0 0 0 0 0 0 0 0 0 0 0 0 0 0 0 0 0 0 127 0" result="hardAlpha"/>
<feOffset dy="2.30933"/>
<feGaussianBlur stdDeviation="4.61867"/>
<feComposite in2="hardAlpha" operator="out"/>
<feColorMatrix type="matrix" values="0 0 0 0 0.654902 0 0 0 0 0.709804 0 0 0 0 0.976471 0 0 0 0.33 0"/>
<feBlend mode="normal" in2="BackgroundImageFix" result="effect1_dropShadow_3_0"/>
<feBlend mode="normal" in="SourceGraphic" in2="effect1_dropShadow_3_0" result="shape"/>
</filter>
<clipPath id="clip0_3_0">
<rect width="433" height="937.589" fill="white" transform="translate(-227 -602)"/>
</clipPath>
</defs>
</svg>
