<svg width="28" height="29" viewBox="0 0 28 29" fill="none" xmlns="http://www.w3.org/2000/svg">
<rect width="28" height="29" fill="#F8F1F1"/>
<g clip-path="url(#clip0_3_0)">
<rect width="433" height="937.589" transform="translate(-285 -602)" fill="white"/>
<rect x="-285" y="-602" width="375" height="812" fill="#FFFDFD"/>
<g filter="url(#filter0_d_3_0)">
<rect x="-257.287" y="-207.105" width="377.576" height="340.627" rx="18.4747" fill="white"/>
<rect x="-256.71" y="-206.528" width="376.421" height="339.472" rx="17.8973" stroke="#A7B5F9" stroke-opacity="0.5" stroke-width="1.15467"/>
</g>
<circle cx="14.0572" cy="14.5826" r="13.856" fill="white"/>
<circle cx="14.0572" cy="14.5826" r="12.7013" stroke="#E97979" stroke-opacity="0.3" stroke-width="2.30933"/>
<path fill-rule="evenodd" clip-rule="evenodd" d="M18.4699 10.1748C18.339 10.0436 18.1613 9.9699 17.976 9.9699C17.7907 9.9699 17.613 10.0436 17.4821 10.1748L14.0562 13.5937L10.6303 10.1678C10.4994 10.0366 10.3217 9.96289 10.1363 9.96289C9.95102 9.96289 9.77332 10.0366 9.64242 10.1678C9.36919 10.441 9.36919 10.8824 9.64242 11.1556L13.0683 14.5816L9.64242 18.0075C9.36919 18.2807 9.36919 18.7221 9.64242 18.9953C9.91566 19.2685 10.357 19.2685 10.6303 18.9953L14.0562 15.5694L17.4821 18.9953C17.7553 19.2685 18.1967 19.2685 18.4699 18.9953C18.7431 18.7221 18.7431 18.2807 18.4699 18.0075L15.044 14.5816L18.4699 11.1556C18.7361 10.8894 18.7361 10.441 18.4699 10.1748Z" fill="#E17566"/>
</g>
<defs>
<filter id="filter0_d_3_0" x="-266.524" y="-214.033" width="396.051" height="359.102" filterUnits="userSpaceOnUse" color-interpolation-filters="sRGB">
<feFlood flood-opacity="0" result="BackgroundImageFix"/>
<feColorMatrix in="SourceAlpha" type="matrix" values="0 0 0 0 0 0 0 0 0 0 0 0 0 0 0 0 0 0 127 0" result="hardAlpha"/>
<feOffset dy="2.30933"/>
<feGaussianBlur stdDeviation="4.61867"/>
<feComposite in2="hardAlpha" operator="out"/>
<feColorMatrix type="matrix" values="0 0 0 0 0.654902 0 0 0 0 0.709804 0 0 0 0 0.976471 0 0 0 0.33 0"/>
<feBlend mode="normal" in2="BackgroundImageFix" result="effect1_dropShadow_3_0"/>
<feBlend mode="normal" in="SourceGraphic" in2="effect1_dropShadow_3_0" result="shape"/>
</filter>
<clipPath id="clip0_3_0">
<rect width="433" height="937.589" fill="white" transform="translate(-285 -602)"/>
</clipPath>
</defs>
</svg>
