<svg width="35" height="46" viewBox="0 0 35 46" fill="none" xmlns="http://www.w3.org/2000/svg">
<rect width="35" height="46" fill="#F8F1F1"/>
<g clip-path="url(#clip0_3_0)">
<rect width="433" height="937.589" transform="translate(-132 -848)" fill="white"/>
<g filter="url(#filter0_d_3_0)">
<rect x="-136.619" y="-9.71094" width="433" height="73.8987" fill="white"/>
</g>
<path d="M14.3945 8.83083H21.3591M14.3945 12.8215H18.8265M19.4917 20.226H20.7173C24.0505 20.226 26.9501 17.828 27.7325 14.4242C28.121 12.7339 28.121 10.9708 27.7325 9.28055L27.6299 8.83423C26.8758 5.55348 24.4179 3.0045 21.2854 2.25467L20.8453 2.14933C19.0997 1.73147 17.287 1.73147 15.5414 2.14933L15.2838 2.21098C12.0395 2.98758 9.49391 5.62753 8.71289 9.02538C8.28582 10.8833 8.28972 12.8384 8.71679 14.6963C9.51002 18.1473 11.8434 21.0193 14.9736 22.3576L15.11 22.4159C16.4645 22.995 18.0162 22.2976 18.572 20.8766C18.725 20.4855 19.0893 20.226 19.4917 20.226Z" stroke="#8999E8" stroke-width="1.732" stroke-linecap="round"/>
<text fill="#334E68" xml:space="preserve" style="white-space: pre" font-family="Poppins" font-size="13.856" letter-spacing="0em"><tspan x="0.3125" y="41.0879">Chat</tspan></text>
</g>
<defs>
<filter id="filter0_d_3_0" x="-150.475" y="-28.1856" width="469.949" height="110.848" filterUnits="userSpaceOnUse" color-interpolation-filters="sRGB">
<feFlood flood-opacity="0" result="BackgroundImageFix"/>
<feColorMatrix in="SourceAlpha" type="matrix" values="0 0 0 0 0 0 0 0 0 0 0 0 0 0 0 0 0 0 127 0" result="hardAlpha"/>
<feOffset dx="4.61867"/>
<feGaussianBlur stdDeviation="9.23733"/>
<feComposite in2="hardAlpha" operator="out"/>
<feColorMatrix type="matrix" values="0 0 0 0 0.176471 0 0 0 0 0.513726 0 0 0 0 0.682353 0 0 0 0.1 0"/>
<feBlend mode="normal" in2="BackgroundImageFix" result="effect1_dropShadow_3_0"/>
<feBlend mode="normal" in="SourceGraphic" in2="effect1_dropShadow_3_0" result="shape"/>
</filter>
<clipPath id="clip0_3_0">
<rect width="433" height="937.589" fill="white" transform="translate(-132 -848)"/>
</clipPath>
</defs>
</svg>
