<svg width="39" height="40" viewBox="0 0 39 40" fill="none" xmlns="http://www.w3.org/2000/svg">
<rect width="39" height="40" fill="#F8F1F1"/>
<g clip-path="url(#clip0_3_0)">
<rect width="429" height="928.464" transform="translate(-24 -852)" fill="white"/>
<g filter="url(#filter0_d_3_0)">
<rect x="-24" y="-12.6523" width="429" height="66.3188" fill="white"/>
</g>
<text fill="#334E68" xml:space="preserve" style="white-space: pre" font-family="Poppins" font-size="12.4348" letter-spacing="0em"><tspan x="0.871094" y="35.9694">Home</tspan></text>
<path d="M27.8546 7.78279C27.8546 7.35357 27.5067 7.00561 27.0775 7.00561C26.6483 7.00561 26.3003 7.35357 26.3003 7.78279H27.8546ZM12.7464 7.78279C12.7464 7.35357 12.3984 7.00561 11.9692 7.00561C11.54 7.00561 11.192 7.35357 11.192 7.78279H12.7464ZM22.1277 19.169L21.949 18.4126L22.1277 19.169ZM16.919 19.169L17.0977 18.4126H17.0977L16.919 19.169ZM22.4543 2.90752L21.9028 3.45511L22.4543 2.90752ZM28.298 9.89579C28.6004 10.2004 29.0925 10.2021 29.397 9.89968C29.7016 9.59725 29.7034 9.10518 29.4009 8.8006L28.298 9.89579ZM16.5924 2.90752L17.1439 3.45511V3.45511L16.5924 2.90752ZM9.64578 8.8006C9.34335 9.10518 9.34509 9.59725 9.64967 9.89968C9.95425 10.2021 10.4463 10.2004 10.7488 9.89579L9.64578 8.8006ZM17.1591 16.6957L16.3953 16.5523V16.5523L17.1591 16.6957ZM17.1792 16.5889L17.943 16.7323L17.943 16.7323L17.1792 16.5889ZM21.8676 16.5889L21.1037 16.7323L21.1037 16.7323L21.8676 16.5889ZM21.8876 16.6957L22.6514 16.5523V16.5523L21.8876 16.6957ZM21.5873 19.0081L20.8855 18.6742L21.5873 19.0081ZM20.7645 18.9285C20.5801 19.316 20.7448 19.7797 21.1323 19.9642C21.5199 20.1486 21.9836 19.984 22.168 19.5964L20.7645 18.9285ZM17.4594 19.0081L16.7576 19.3421L16.7577 19.3421L17.4594 19.0081ZM16.8787 19.5964C17.0631 19.984 17.5268 20.1486 17.9144 19.9642C18.302 19.7797 18.4666 19.316 18.2822 18.9285L16.8787 19.5964ZM18.8613 14.7499L18.6535 14.001H18.6535L18.8613 14.7499ZM20.1854 14.7499L20.3932 14.001L20.1854 14.7499ZM26.3003 7.78279V12.8793H27.8546V7.78279H26.3003ZM12.7464 12.8793V7.78279H11.192V12.8793H12.7464ZM21.949 18.4126C20.3535 18.7895 18.6932 18.7895 17.0977 18.4126L16.7403 19.9253C18.5708 20.3578 20.4759 20.3578 22.3063 19.9253L21.949 18.4126ZM17.0977 18.4126C14.5521 17.8113 12.7464 15.5221 12.7464 12.8793H11.192C11.192 16.2358 13.4865 19.1567 16.7403 19.9253L17.0977 18.4126ZM22.3063 19.9253C25.5602 19.1567 27.8546 16.2358 27.8546 12.8793H26.3003C26.3003 15.5221 24.4945 17.8113 21.949 18.4126L22.3063 19.9253ZM21.9028 3.45511L28.298 9.89579L29.4009 8.8006L23.0057 2.35993L21.9028 3.45511ZM16.041 2.35993L9.64578 8.8006L10.7488 9.89579L17.1439 3.45511L16.041 2.35993ZM23.0057 2.35993C22.3304 1.67982 21.77 1.11301 21.2661 0.725861C20.7446 0.325112 20.1925 0.0431386 19.5234 0.0431386V1.59749C19.7126 1.59749 19.9352 1.66338 20.3191 1.95837C20.7207 2.26696 21.1964 2.74375 21.9028 3.45511L23.0057 2.35993ZM17.1439 3.45511C17.8503 2.74375 18.326 2.26696 18.7276 1.95837C19.1115 1.66338 19.3341 1.59749 19.5234 1.59749V0.0431386C18.8542 0.0431386 18.3021 0.325112 17.7806 0.725861C17.2767 1.11301 16.7163 1.67982 16.041 2.35993L17.1439 3.45511ZM17.9229 16.8391L17.943 16.7323L16.4153 16.4456L16.3953 16.5523L17.9229 16.8391ZM21.1037 16.7323L21.1238 16.8391L22.6514 16.5523L22.6314 16.4456L21.1037 16.7323ZM20.8855 18.6742L20.7645 18.9285L22.168 19.5964L22.2891 19.3421L20.8855 18.6742ZM16.7577 19.3421L16.8787 19.5964L18.2822 18.9285L18.1612 18.6742L16.7577 19.3421ZM21.1238 16.8391C21.2405 17.4609 21.1569 18.104 20.8855 18.6742L22.2891 19.3421C22.702 18.4745 22.8288 17.4972 22.6514 16.5523L21.1238 16.8391ZM16.3953 16.5523C16.2179 17.4972 16.3448 18.4745 16.7576 19.3421L18.1612 18.6742C17.8898 18.104 17.8062 17.4609 17.9229 16.8391L16.3953 16.5523ZM19.069 15.4988C19.3664 15.4163 19.6803 15.4163 19.9777 15.4988L20.3932 14.001C19.824 13.8431 19.2228 13.8431 18.6535 14.001L19.069 15.4988ZM22.6314 16.4456C22.4108 15.2705 21.5444 14.3205 20.3932 14.001L19.9777 15.4988C20.5529 15.6584 20.9916 16.1352 21.1037 16.7323L22.6314 16.4456ZM17.943 16.7323C18.0551 16.1352 18.4938 15.6584 19.069 15.4988L18.6535 14.001C17.5023 14.3205 16.6359 15.2705 16.4153 16.4456L17.943 16.7323Z" fill="#8999E8"/>
</g>
<defs>
<filter id="filter0_d_3_0" x="-40.5797" y="-25.0871" width="462.159" height="99.4778" filterUnits="userSpaceOnUse" color-interpolation-filters="sRGB">
<feFlood flood-opacity="0" result="BackgroundImageFix"/>
<feColorMatrix in="SourceAlpha" type="matrix" values="0 0 0 0 0 0 0 0 0 0 0 0 0 0 0 0 0 0 127 0" result="hardAlpha"/>
<feOffset dy="4.14493"/>
<feGaussianBlur stdDeviation="8.28986"/>
<feComposite in2="hardAlpha" operator="out"/>
<feColorMatrix type="matrix" values="0 0 0 0 0.0367188 0 0 0 0 0.117777 0 0 0 0 0.195833 0 0 0 0.3 0"/>
<feBlend mode="normal" in2="BackgroundImageFix" result="effect1_dropShadow_3_0"/>
<feBlend mode="normal" in="SourceGraphic" in2="effect1_dropShadow_3_0" result="shape"/>
</filter>
<clipPath id="clip0_3_0">
<rect width="429" height="928.464" fill="white" transform="translate(-24 -852)"/>
</clipPath>
</defs>
</svg>
