<svg width="43" height="45" viewBox="0 0 43 45" fill="none" xmlns="http://www.w3.org/2000/svg">
<rect width="43" height="45" fill="#F8F1F1"/>
<g clip-path="url(#clip0_3_0)">
<rect width="433" height="937.589" transform="translate(-27 -849)" fill="white"/>
<g filter="url(#filter0_d_3_0)">
<rect x="-31.6191" y="-10.7109" width="433" height="73.8987" fill="white"/>
</g>
<path d="M32.8077 10.9763C33.1199 10.6621 33.1199 10.1526 32.8077 9.83841L26.1905 3.17784C25.5134 2.49623 24.9488 1.92783 24.4402 1.53729C23.9035 1.12507 23.3364 0.835938 22.6498 0.835938C21.9633 0.835938 21.3962 1.12507 20.8594 1.53729C20.3509 1.92784 19.7862 2.49622 19.1091 3.17785L12.4919 9.83841C12.1798 10.1526 12.1798 10.6621 12.4919 10.9763C12.8041 11.2906 13.3103 11.2906 13.6224 10.9763L14.0804 10.5154V14.0374C14.0804 17.4947 16.4446 20.4971 19.7885 21.2867C21.6705 21.731 23.6291 21.731 25.5111 21.2867C28.855 20.4971 31.2192 17.4947 31.2192 14.0374V10.5153L31.6772 10.9763C31.9894 11.2906 32.4955 11.2906 32.8077 10.9763Z" fill="#5B6CBA"/>
<path d="M9.44022 30.6084V40.2383H7.86063V36.0261H3.32972V40.2383H1.75014V30.6084H3.32972V34.7374H7.86063V30.6084H9.44022ZM14.8313 40.363C14.1108 40.363 13.4595 40.2013 12.8776 39.878C12.2956 39.5455 11.8384 39.0836 11.5058 38.4924C11.1733 37.892 11.007 37.1992 11.007 36.414C11.007 35.6381 11.1779 34.9499 11.5197 34.3495C11.8615 33.7491 12.328 33.2872 12.9192 32.9639C13.5103 32.6406 14.1708 32.4789 14.9006 32.4789C15.6303 32.4789 16.2908 32.6406 16.882 32.9639C17.4732 33.2872 17.9396 33.7491 18.2814 34.3495C18.6232 34.9499 18.7941 35.6381 18.7941 36.414C18.7941 37.19 18.6186 37.8781 18.2676 38.4786C17.9166 39.079 17.4362 39.5455 16.8265 39.878C16.2261 40.2013 15.561 40.363 14.8313 40.363ZM14.8313 38.9912C15.2377 38.9912 15.6165 38.8942 15.9675 38.7003C16.3277 38.5063 16.6187 38.2153 16.8404 37.8273C17.0621 37.4394 17.1729 36.9683 17.1729 36.414C17.1729 35.8598 17.0667 35.3933 16.8543 35.0146C16.6418 34.6266 16.3601 34.3356 16.009 34.1416C15.658 33.9477 15.2793 33.8507 14.8729 33.8507C14.4664 33.8507 14.0877 33.9477 13.7367 34.1416C13.3949 34.3356 13.1224 34.6266 12.9192 35.0146C12.7159 35.3933 12.6143 35.8598 12.6143 36.414C12.6143 37.2361 12.8222 37.8735 13.2378 38.3262C13.6628 38.7695 14.1939 38.9912 14.8313 38.9912ZM29.5976 32.4789C30.198 32.4789 30.7338 32.6036 31.2049 32.853C31.6852 33.1024 32.0593 33.4719 32.3272 33.9615C32.6043 34.4511 32.7429 35.0423 32.7429 35.7351V40.2383H31.1771V35.9706C31.1771 35.2871 31.0063 34.7652 30.6645 34.4049C30.3227 34.0354 29.8562 33.8507 29.265 33.8507C28.6738 33.8507 28.2027 34.0354 27.8517 34.4049C27.5099 34.7652 27.339 35.2871 27.339 35.9706V40.2383H25.7733V35.9706C25.7733 35.2871 25.6024 34.7652 25.2606 34.4049C24.9188 34.0354 24.4524 33.8507 23.8612 33.8507C23.27 33.8507 22.7989 34.0354 22.4479 34.4049C22.1061 34.7652 21.9352 35.2871 21.9352 35.9706V40.2383H20.3556V32.6036H21.9352V33.4766C22.1938 33.1625 22.5218 32.9177 22.919 32.7422C23.3162 32.5667 23.7411 32.4789 24.1937 32.4789C24.8034 32.4789 25.3484 32.6082 25.8287 32.8669C26.3091 33.1255 26.6786 33.4996 26.9372 33.9892C27.1681 33.5274 27.5284 33.1625 28.018 32.8946C28.5076 32.6175 29.0341 32.4789 29.5976 32.4789ZM41.7501 36.2339C41.7501 36.5203 41.7317 36.7789 41.6947 37.0098H35.8613C35.9075 37.6195 36.1338 38.1091 36.5403 38.4786C36.9467 38.8481 37.4455 39.0328 38.0367 39.0328C38.8866 39.0328 39.487 38.6772 39.838 37.9659H41.5423C41.3114 38.6679 40.8911 39.2453 40.2814 39.6979C39.681 40.1413 38.9328 40.363 38.0367 40.363C37.307 40.363 36.6511 40.2013 36.0692 39.878C35.4965 39.5455 35.0438 39.0836 34.7113 38.4924C34.388 37.892 34.2263 37.1992 34.2263 36.414C34.2263 35.6289 34.3834 34.9407 34.6974 34.3495C35.0207 33.7491 35.4688 33.2872 36.0415 32.9639C36.6234 32.6406 37.2885 32.4789 38.0367 32.4789C38.7572 32.4789 39.3992 32.636 39.9627 32.95C40.5262 33.2641 40.965 33.7075 41.279 34.2802C41.5931 34.8437 41.7501 35.4949 41.7501 36.2339ZM40.1013 35.7351C40.092 35.1531 39.8842 34.6866 39.4778 34.3356C39.0713 33.9846 38.5679 33.8091 37.9674 33.8091C37.4224 33.8091 36.956 33.9846 36.568 34.3356C36.18 34.6774 35.9491 35.1439 35.8752 35.7351H40.1013Z" fill="#334E68"/>
</g>
<defs>
<filter id="filter0_d_3_0" x="-45.4751" y="-29.1856" width="469.949" height="110.848" filterUnits="userSpaceOnUse" color-interpolation-filters="sRGB">
<feFlood flood-opacity="0" result="BackgroundImageFix"/>
<feColorMatrix in="SourceAlpha" type="matrix" values="0 0 0 0 0 0 0 0 0 0 0 0 0 0 0 0 0 0 127 0" result="hardAlpha"/>
<feOffset dx="4.61867"/>
<feGaussianBlur stdDeviation="9.23733"/>
<feComposite in2="hardAlpha" operator="out"/>
<feColorMatrix type="matrix" values="0 0 0 0 0.176471 0 0 0 0 0.513726 0 0 0 0 0.682353 0 0 0 0.1 0"/>
<feBlend mode="normal" in2="BackgroundImageFix" result="effect1_dropShadow_3_0"/>
<feBlend mode="normal" in="SourceGraphic" in2="effect1_dropShadow_3_0" result="shape"/>
</filter>
<clipPath id="clip0_3_0">
<rect width="433" height="937.589" fill="white" transform="translate(-27 -849)"/>
</clipPath>
</defs>
</svg>
