<svg width="41" height="45" viewBox="0 0 41 45" fill="none" xmlns="http://www.w3.org/2000/svg">
<rect width="41" height="45" fill="#F8F1F1"/>
<g clip-path="url(#clip0_3_0)">
<rect width="433" height="937.59" transform="translate(-245 -869)" fill="#F9F9F9"/>
<g filter="url(#filter0_d_3_0)">
<rect x="-221.854" y="-196.59" width="387.707" height="206.005" rx="9.25867" fill="white"/>
<rect x="-221.275" y="-196.011" width="386.549" height="204.848" rx="8.68" stroke="#A7B5F9" stroke-opacity="0.3" stroke-width="1.15733"/>
</g>
<g filter="url(#filter1_d_3_0)">
<rect x="-13.5332" y="-43.8203" width="133.093" height="40.5067" rx="9.25867" fill="#FFD9D5"/>
</g>
<g filter="url(#filter2_d_3_0)">
<rect x="-147.785" y="-97.0586" width="238.411" height="64.8107" rx="32.4053" fill="#F3B3AB"/>
</g>
<g filter="url(#filter3_d_3_0)">
<rect x="-245" y="-24.1465" width="434" height="94.9013" fill="white"/>
</g>
<text fill="#35506B" xml:space="preserve" style="white-space: pre" font-family="Poppins" font-size="13.888" letter-spacing="0em"><tspan x="0.353516" y="40.6362">Team</tspan></text>
<path d="M13.084 18.0183C13.084 15.7011 14.7677 13.7273 17.056 13.3621L17.2621 13.3292C19.0944 13.0368 20.9615 13.0368 22.7939 13.3292L23 13.3621C25.2882 13.7273 26.972 15.7011 26.972 18.0183C26.972 19.0199 26.1601 19.8318 25.1585 19.8318H14.8975C13.8959 19.8318 13.084 19.0199 13.084 18.0183Z" fill="#35506B"/>
<path d="M24.0787 5.36512C24.0787 7.60224 22.2651 9.41579 20.028 9.41579C17.7909 9.41579 15.9773 7.60224 15.9773 5.36512C15.9773 3.128 17.7909 1.31445 20.028 1.31445C22.2651 1.31445 24.0787 3.128 24.0787 5.36512Z" fill="#35506B"/>
<path d="M13.084 18.0183C13.084 15.7011 14.7677 13.7273 17.056 13.3621L17.2621 13.3292C19.0944 13.0368 20.9615 13.0368 22.7939 13.3292L23 13.3621C25.2882 13.7273 26.972 15.7011 26.972 18.0183C26.972 19.0199 26.1601 19.8318 25.1585 19.8318H14.8975C13.8959 19.8318 13.084 19.0199 13.084 18.0183Z" stroke="#8999E8" stroke-width="1.736"/>
<path d="M24.0787 5.36512C24.0787 7.60224 22.2651 9.41579 20.028 9.41579C17.7909 9.41579 15.9773 7.60224 15.9773 5.36512C15.9773 3.128 17.7909 1.31445 20.028 1.31445C22.2651 1.31445 24.0787 3.128 24.0787 5.36512Z" stroke="#8999E8" stroke-width="1.736"/>
<path d="M26.9727 9.41579C29.2098 9.41579 31.0233 7.60224 31.0233 5.36512C31.0233 3.128 29.2098 1.31445 26.9727 1.31445M29.7385 19.8318H32.1032C33.1047 19.8318 33.9167 19.0199 33.9167 18.0183C33.9167 15.7011 32.2329 13.7273 29.9446 13.3621V13.3621C29.8075 13.3402 29.6685 13.3292 29.5296 13.3292C29.1595 13.3292 29.0446 13.3292 28.4091 13.3292" stroke="#8999E8" stroke-width="1.736" stroke-linecap="round"/>
</g>
<defs>
<filter id="filter0_d_3_0" x="-231.112" y="-203.534" width="406.224" height="224.523" filterUnits="userSpaceOnUse" color-interpolation-filters="sRGB">
<feFlood flood-opacity="0" result="BackgroundImageFix"/>
<feColorMatrix in="SourceAlpha" type="matrix" values="0 0 0 0 0 0 0 0 0 0 0 0 0 0 0 0 0 0 127 0" result="hardAlpha"/>
<feOffset dy="2.31467"/>
<feGaussianBlur stdDeviation="4.62933"/>
<feComposite in2="hardAlpha" operator="out"/>
<feColorMatrix type="matrix" values="0 0 0 0 0.654902 0 0 0 0 0.709804 0 0 0 0 0.976471 0 0 0 0.33 0"/>
<feBlend mode="normal" in2="BackgroundImageFix" result="effect1_dropShadow_3_0"/>
<feBlend mode="normal" in="SourceGraphic" in2="effect1_dropShadow_3_0" result="shape"/>
</filter>
<filter id="filter1_d_3_0" x="-20.4772" y="-48.4496" width="146.982" height="54.3939" filterUnits="userSpaceOnUse" color-interpolation-filters="sRGB">
<feFlood flood-opacity="0" result="BackgroundImageFix"/>
<feColorMatrix in="SourceAlpha" type="matrix" values="0 0 0 0 0 0 0 0 0 0 0 0 0 0 0 0 0 0 127 0" result="hardAlpha"/>
<feOffset dy="2.31467"/>
<feGaussianBlur stdDeviation="3.472"/>
<feComposite in2="hardAlpha" operator="out"/>
<feColorMatrix type="matrix" values="0 0 0 0 0 0 0 0 0 0 0 0 0 0 0 0 0 0 0.12 0"/>
<feBlend mode="normal" in2="BackgroundImageFix" result="effect1_dropShadow_3_0"/>
<feBlend mode="normal" in="SourceGraphic" in2="effect1_dropShadow_3_0" result="shape"/>
</filter>
<filter id="filter2_d_3_0" x="-180.19" y="-127.149" width="303.221" height="129.621" filterUnits="userSpaceOnUse" color-interpolation-filters="sRGB">
<feFlood flood-opacity="0" result="BackgroundImageFix"/>
<feColorMatrix in="SourceAlpha" type="matrix" values="0 0 0 0 0 0 0 0 0 0 0 0 0 0 0 0 0 0 127 0" result="hardAlpha"/>
<feOffset dy="2.31467"/>
<feGaussianBlur stdDeviation="16.2027"/>
<feComposite in2="hardAlpha" operator="out"/>
<feColorMatrix type="matrix" values="0 0 0 0 0.0666667 0 0 0 0 0.113725 0 0 0 0 0.282353 0 0 0 0.46 0"/>
<feBlend mode="normal" in2="BackgroundImageFix" result="effect1_dropShadow_3_0"/>
<feBlend mode="normal" in="SourceGraphic" in2="effect1_dropShadow_3_0" result="shape"/>
</filter>
<filter id="filter3_d_3_0" x="-254.259" y="-33.4052" width="452.517" height="113.418" filterUnits="userSpaceOnUse" color-interpolation-filters="sRGB">
<feFlood flood-opacity="0" result="BackgroundImageFix"/>
<feColorMatrix in="SourceAlpha" type="matrix" values="0 0 0 0 0 0 0 0 0 0 0 0 0 0 0 0 0 0 127 0" result="hardAlpha"/>
<feOffset/>
<feGaussianBlur stdDeviation="4.62933"/>
<feComposite in2="hardAlpha" operator="out"/>
<feColorMatrix type="matrix" values="0 0 0 0 0 0 0 0 0 0 0 0 0 0 0 0 0 0 0.12 0"/>
<feBlend mode="normal" in2="BackgroundImageFix" result="effect1_dropShadow_3_0"/>
<feBlend mode="normal" in="SourceGraphic" in2="effect1_dropShadow_3_0" result="shape"/>
</filter>
<clipPath id="clip0_3_0">
<rect width="433" height="937.59" fill="white" transform="translate(-245 -869)"/>
</clipPath>
</defs>
</svg>
